<?xml version="1.0" ?><!DOCTYPE svg  PUBLIC '-//W3C//DTD SVG 1.1//EN'  'http://www.w3.org/Graphics/SVG/1.1/DTD/svg11.dtd'><svg enable-background="new 0 0 512 512" id="Layer_1" version="1.1" viewBox="0 0 512 512" xml:space="preserve" xmlns="http://www.w3.org/2000/svg" xmlns:xlink="http://www.w3.org/1999/xlink"><g id="Layer_1_1_"><circle cx="256" cy="256" fill="#F47D01" r="238.2"/></g><g id="Layer_2_1_"><g><path d="M256,382.1c-14.6,0-29.3,0.1-44,0    c-28-0.4-50.4-11.9-66.9-34.6c-10-13.7-14.9-29.3-15-46.2c-0.1-30.3,0-60.6,0-90.9c0.1-35.5,24.8-67.9,59.1-77.4    c7.9-2.2,15.9-3.2,24.1-3.2c13.1,0,26.3-0.2,39.5,0c31.8,0.6,56.1,14.7,72.1,42.3c6.6,11.4,9.8,23.9,10.1,37.1    c0.2,10.9,6.9,17.4,17.8,17.4c4.2,0,8.5,0,12.7,0c9.1,0.1,16.3,7.2,16.3,16.4c0,19.4,0.1,38.8,0,58.2c-0.2,39-28.3,72.5-66.5,79.6    c-5.2,0.9-10.4,1.4-15.6,1.4C285.3,382.2,270.6,382.1,256,382.1z M256.4,317.2c15.3,0,30.6,0,46,0c7.9,0,14.2-5.2,15.3-12.3    c1.4-9.6-5.3-17.3-15.2-17.3c-19.5,0-39,0-58.4,0c-11.1,0-22.3,0-33.5,0c-8.5,0-15.1,6.2-15.3,14.2c-0.2,8.8,6.2,15.5,15.3,15.5    C225.8,317.3,241.1,317.2,256.4,317.2z M233.1,195.9c-7.5,0-15,0-22.5,0c-1.5,0-3,0-4.4,0.4c-7.6,2.1-12.8,9.4-11.9,16.6    c1.1,8.5,7.3,14.1,15.9,14.2c15.3,0.1,30.6,0,45.9,0c1.7,0,3.5-0.1,5.1-0.7c7.3-2.5,11.8-9.8,10.7-17.1    c-1.1-7.6-7.6-13.2-15.4-13.3C248.8,195.8,240.9,195.9,233.1,195.9z" fill="none" stroke="#FAFAFA" stroke-miterlimit="10" stroke-width="12"/></g></g></svg>